<svg width="16" height="14" viewBox="0 0 16 14" fill="none" xmlns="http://www.w3.org/2000/svg">
<path d="M15.3438 12.4688H1.90625V0.28125C1.90625 0.195312 1.83594 0.125 1.75 0.125H0.65625C0.570312 0.125 0.5 0.195312 0.5 0.28125V13.7188C0.5 13.8047 0.570312 13.875 0.65625 13.875H15.3438C15.4297 13.875 15.5 13.8047 15.5 13.7188V12.625C15.5 12.5391 15.4297 12.4688 15.3438 12.4688ZM3.625 10.9062H4.71875C4.80469 10.9062 4.875 10.8359 4.875 10.75V7.9375C4.875 7.85156 4.80469 7.78125 4.71875 7.78125H3.625C3.53906 7.78125 3.46875 7.85156 3.46875 7.9375V10.75C3.46875 10.8359 3.53906 10.9062 3.625 10.9062ZM6.59375 10.9062H7.6875C7.77344 10.9062 7.84375 10.8359 7.84375 10.75V4.5C7.84375 4.41406 7.77344 4.34375 7.6875 4.34375H6.59375C6.50781 4.34375 6.4375 4.41406 6.4375 4.5V10.75C6.4375 10.8359 6.50781 10.9062 6.59375 10.9062ZM9.5625 10.9062H10.6562C10.7422 10.9062 10.8125 10.8359 10.8125 10.75V6.02344C10.8125 5.9375 10.7422 5.86719 10.6562 5.86719H9.5625C9.47656 5.86719 9.40625 5.9375 9.40625 6.02344V10.75C9.40625 10.8359 9.47656 10.9062 9.5625 10.9062ZM12.5312 10.9062H13.625C13.7109 10.9062 13.7812 10.8359 13.7812 10.75V2.9375C13.7812 2.85156 13.7109 2.78125 13.625 2.78125H12.5312C12.4453 2.78125 12.375 2.85156 12.375 2.9375V10.75C12.375 10.8359 12.4453 10.9062 12.5312 10.9062Z" fill="#FCEE0A"/>
</svg>
