<svg width="50" height="40" viewBox="0 0 50 40" fill="none" xmlns="http://www.w3.org/2000/svg">
<path id="Vector" d="M18.7086 2.08073C18.7086 0.935315 17.6883 -1.28843e-06 16.4387 -1.3385e-06C15.1892 -1.38857e-06 14.1688 0.935315 14.1688 2.08073L14.1688 6.79118L12.5274 6.79118C10.0949 6.79118 8.12073 8.6008 8.12073 10.8306L8.12073 12.3149L2.98206 12.3149C1.73252 12.3149 0.712169 13.2502 0.712169 14.3957C0.712169 15.5411 1.73252 16.4764 2.98206 16.4764L8.12073 16.4764L8.12073 17.7167L2.98206 17.7167C1.73252 17.7167 0.712169 18.652 0.712169 19.7974C0.712169 20.9428 1.73252 21.8782 2.98206 21.8782L8.12073 21.8782L8.12073 23.1185L2.98206 23.1185C1.73252 23.1185 0.712169 24.0538 0.712168 25.1992C0.712168 26.3446 1.73252 27.2799 2.98206 27.2799L8.12073 27.2799L8.12073 28.7642C8.12073 30.9941 10.0949 32.8037 12.5274 32.8037L14.1688 32.8037L14.1688 37.5141C14.1688 38.6595 15.1892 39.5949 16.4387 39.5949C17.6883 39.5949 18.7086 38.6595 18.7086 37.5141L18.7086 32.8037L20.0617 32.8037L20.0617 37.5141C20.0617 38.6595 21.082 39.5949 22.3315 39.5949C23.5811 39.5949 24.6014 38.6595 24.6014 37.5141L24.6014 32.8037L25.9545 32.8037L25.9545 37.5141C25.9545 38.6595 26.9748 39.5949 28.2244 39.5949C29.4739 39.5949 30.4943 38.6595 30.4943 37.5141L30.4943 32.8037L31.8473 32.8037L31.8473 37.5141C31.8473 38.6595 32.8677 39.5949 34.1172 39.5949C35.3668 39.5949 36.3871 38.6595 36.3871 37.5141L36.3871 32.8037L38.0285 32.8037C40.4611 32.8037 42.4352 30.9941 42.4352 28.7642L42.4352 27.2799L47.5739 27.2799C48.8234 27.2799 49.8437 26.3446 49.8437 25.1992C49.8437 24.0538 48.8234 23.1185 47.5739 23.1185L42.4352 23.1185L42.4352 21.8782L47.5739 21.8782C48.8234 21.8782 49.8437 20.9428 49.8437 19.7974C49.8437 18.652 48.8234 17.7167 47.5739 17.7167L42.4352 17.7167L42.4352 16.4764L47.5739 16.4764C48.8234 16.4764 49.8437 15.5411 49.8437 14.3957C49.8437 13.2502 48.8234 12.3149 47.5739 12.3149L42.4352 12.3149L42.4352 10.8306C42.4352 8.60081 40.4611 6.79118 38.0285 6.79118L36.3871 6.79118L36.3871 2.08073C36.3871 0.935316 35.3668 -5.80075e-07 34.1172 -6.30143e-07C32.8677 -6.80211e-07 31.8473 0.935316 31.8473 2.08073L31.8473 6.79118L30.4943 6.79118L30.4943 2.08073C30.4943 0.935316 29.4739 -8.16194e-07 28.2244 -8.66262e-07C26.9748 -9.16329e-07 25.9545 0.935315 25.9545 2.08073L25.9545 6.79118L24.6014 6.79118L24.6014 2.08073C24.6014 0.935315 23.5811 -1.05231e-06 22.3315 -1.10238e-06C21.082 -1.15245e-06 20.0617 0.935315 20.0617 2.08073L20.0617 6.79118L18.7086 6.79118L18.7086 2.08073ZM15.862 2.08073C15.862 1.7893 16.1208 1.55208 16.4387 1.55208C16.7566 1.55208 17.0154 1.7893 17.0154 2.08073L17.0154 6.79118L15.862 6.79118L15.862 2.08073ZM2.98945 14.9175C2.67152 14.9175 2.41274 14.6803 2.41274 14.3889C2.41274 14.0975 2.67152 13.8602 2.98945 13.8602L8.12812 13.8602L8.12812 14.9175L2.98945 14.9175ZM2.98945 20.3125C2.67152 20.3125 2.41274 20.0753 2.41274 19.7839C2.41274 19.4924 2.67152 19.2552 2.98945 19.2552L8.12812 19.2552L8.12812 20.3125L2.98945 20.3125ZM2.98945 25.7143C2.67152 25.7143 2.41274 25.4771 2.41274 25.1856C2.41274 24.8942 2.67152 24.657 2.98945 24.657L8.12812 24.657L8.12812 25.7143L2.98945 25.7143ZM17.0228 37.4938C17.0228 37.7852 16.764 38.0224 16.4461 38.0224C16.1282 38.0224 15.8694 37.7852 15.8694 37.4938L15.8694 32.7834L17.0228 32.7834L17.0228 37.4938ZM22.9083 37.4938C22.9083 37.7852 22.6495 38.0224 22.3315 38.0224C22.0136 38.0224 21.7548 37.7852 21.7548 37.4938L21.7548 32.7834L22.9083 32.7834L22.9083 37.4938ZM28.7937 37.4938C28.7937 37.7852 28.5349 38.0224 28.217 38.0224C27.8991 38.0224 27.6403 37.7852 27.6403 37.4938L27.6403 32.7834L28.7937 32.7834L28.7937 37.4938ZM34.6865 37.4938C34.6865 37.7852 34.4277 38.0224 34.1098 38.0224C33.7919 38.0224 33.5331 37.7852 33.5331 37.4938L33.5331 32.7834L34.6865 32.7834L34.6865 37.4938ZM47.5591 24.657C47.877 24.657 48.1358 24.8942 48.1358 25.1856C48.1358 25.4771 47.877 25.7143 47.5591 25.7143L42.4204 25.7143L42.4204 24.657L47.5591 24.657ZM47.5591 19.2552C47.877 19.2552 48.1358 19.4924 48.1358 19.7839C48.1358 20.0753 47.877 20.3125 47.5591 20.3125L42.4204 20.3125L42.4204 19.2552L47.5591 19.2552ZM47.5591 13.8602C47.877 13.8602 48.1358 14.0975 48.1358 14.3889C48.1358 14.6803 47.877 14.9175 47.5591 14.9175L42.4204 14.9175L42.4204 13.8602L47.5591 13.8602ZM33.5331 2.08073C33.5331 1.7893 33.7919 1.55208 34.1098 1.55208C34.4277 1.55208 34.6865 1.7893 34.6865 2.08073L34.6865 6.79118L33.5331 6.79118L33.5331 2.08073ZM27.6403 2.08073C27.6403 1.7893 27.8991 1.55208 28.217 1.55208C28.5349 1.55208 28.7937 1.7893 28.7937 2.08073L28.7937 6.79118L27.6403 6.79118L27.6403 2.08073ZM21.7548 2.08073C21.7548 1.7893 22.0136 1.55208 22.3315 1.55208C22.6495 1.55208 22.9083 1.7893 22.9083 2.08073L22.9083 6.79118L21.7548 6.79118L21.7548 2.08073ZM20.0617 8.33647L24.594 8.33647L25.9471 8.33647L30.4795 8.33647L31.8325 8.33647L36.3649 8.33647L38.0063 8.33647C39.5073 8.33647 40.7198 9.45478 40.7198 10.8239L40.7198 12.3082L40.7198 16.4628L40.7198 17.7031L40.7198 21.8578L40.7198 23.0981L40.7198 27.2528L40.7198 28.7371C40.7198 30.113 39.4999 31.2245 38.0063 31.2245L36.3649 31.2245L31.8325 31.2245L30.4795 31.2245L25.9471 31.2245L24.594 31.2245L20.0617 31.2245L18.7086 31.2245L14.1762 31.2245L12.5348 31.2245C11.0339 31.2245 9.8213 30.1062 9.8213 28.7371L9.8213 27.2528L9.8213 23.0981L9.8213 21.8578L9.8213 17.7031L9.8213 16.4628L9.8213 12.3082L9.8213 10.8239C9.8213 9.448 11.0413 8.33647 12.5348 8.33647L14.1762 8.33647L18.7086 8.33647L20.0617 8.33647Z" fill="#FCEE0A"/>
</svg>
