<svg width="28" height="28" viewBox="0 0 28 28" fill="none" xmlns="http://www.w3.org/2000/svg">
<path d="M5.61602 5.7879H25.5309L23.0416 16.5751H8.10539M23.0416 19.8943H8.93517L4.78624 2.46875H2.29688" stroke="#FCEE0A" stroke-width="2.48936" stroke-linecap="round" stroke-linejoin="round"/>
<path d="M21.3822 24.8738C22.2988 24.8738 23.0418 24.1308 23.0418 23.2143C23.0418 22.2977 22.2988 21.5547 21.3822 21.5547C20.4657 21.5547 19.7227 22.2977 19.7227 23.2143C19.7227 24.1308 20.4657 24.8738 21.3822 24.8738Z" stroke="#FCEE0A" stroke-width="2.48936" stroke-linecap="round" stroke-linejoin="round"/>
<path d="M10.5951 24.8738C11.5117 24.8738 12.2547 24.1308 12.2547 23.2143C12.2547 22.2977 11.5117 21.5547 10.5951 21.5547C9.67856 21.5547 8.93555 22.2977 8.93555 23.2143C8.93555 24.1308 9.67856 24.8738 10.5951 24.8738Z" stroke="#FCEE0A" stroke-width="2.48936" stroke-linecap="round" stroke-linejoin="round"/>
</svg>
