<svg width="157" height="46" viewBox="0 0 157 46" fill="none" xmlns="http://www.w3.org/2000/svg">
<path d="M5.64062 4.55176H19.8646C21.5477 4.56666 23.2186 4.83893 24.8191 5.35911C26.4852 5.87652 28.0453 6.68724 29.4257 7.75299C30.8214 8.8414 31.9769 10.2061 32.8195 11.7616C33.7376 13.4946 34.1941 15.4342 34.1451 17.3942C34.152 19.1248 33.7595 20.8338 32.9981 22.3885C32.2379 23.9453 31.1846 25.3413 29.8957 26.5003C28.5626 27.7116 27.0168 28.6664 25.3361 29.3167C23.5851 29.9582 21.7294 30.267 19.8646 30.2273H12.7479L34.1169 43.1918H26.3233L8.24476 32.0203V26.3314H21.209C22.3001 26.3221 23.3791 26.1021 24.3866 25.6836C26.5881 24.7853 28.3863 23.1165 29.4445 20.9897C30.0066 19.8452 30.2901 18.5843 30.2718 17.3097C30.2787 16.1018 30.022 14.9069 29.5197 13.8081C29.0273 12.7543 28.3454 11.7997 27.5078 10.9918C26.6715 10.1725 25.6937 9.511 24.6216 9.0391C23.5467 8.56405 22.3845 8.31788 21.209 8.31626H5.64062V4.55176Z" fill="#FCEA10"/>
<path d="M42.0625 43.2394V10.9268H45.3153V43.2394H42.0625Z" fill="#FCEA10"/>
<path d="M51.8789 10.7949H60.4716C62.2234 10.8263 63.9518 11.2028 65.5576 11.9027C67.39 12.6596 69.0665 13.748 70.5027 15.1133C72.0627 16.5786 73.3377 18.3196 74.2632 20.2484C75.2099 22.3326 75.7121 24.5907 75.738 26.8791C75.7639 29.1676 75.3129 31.4364 74.4136 33.5414C73.5811 35.4527 72.4018 37.1937 70.9351 38.6765C69.5333 40.1034 67.879 41.2588 66.0559 42.0843C64.3116 42.8922 62.4132 43.3149 60.4904 43.3235H59.5503V40.0659C61.2218 40.0675 62.8782 39.7488 64.4295 39.1272C65.9808 38.5061 67.4026 37.6019 68.6224 36.461C70.4908 34.6569 71.7798 32.3387 72.3256 29.8012C72.8713 27.2637 72.6491 24.6215 71.6872 22.2104C70.4447 19.0615 68.0336 16.5125 64.956 15.0945C63.2595 14.325 61.4134 13.9403 59.5503 13.968H51.8789V10.7949Z" fill="#FCEA10"/>
<path d="M108.498 10.748V14.0056H82.4844V10.748H108.498ZM108.544 28.0591H85.7466V39.9815H108.544V43.2391H82.4844V24.8015H108.544V28.0591Z" fill="#FCEA10"/>
<path d="M119.858 4.28906L150.243 43.1638H145.307L132.334 26.7164L120.244 43.1638H115.026L129.983 23.4495L114.941 4.29846L119.858 4.28906Z" fill="#FCEA10"/>
<path d="M6.86328 4.55176H21.0873C22.7708 4.562 24.4423 4.83439 26.0417 5.35911C27.7108 5.87643 29.274 6.6871 30.6577 7.75299C32.0529 8.83567 33.2058 10.1979 34.0421 11.7522C34.9579 13.4861 35.4142 15.4251 35.3677 17.3848C35.3792 19.119 34.9865 20.832 34.2208 22.3885C33.4628 23.9439 32.4091 25.3373 31.1184 26.491C29.7874 27.705 28.241 28.6602 26.5588 29.3073C24.8088 29.9537 22.9528 30.2658 21.0873 30.2273H13.9988L35.3677 43.1824H27.5553L9.46741 32.0485V26.3501H22.3941C23.4852 26.3408 24.5642 26.1209 25.5717 25.7024C26.6513 25.2624 27.6396 24.6257 28.486 23.8248C29.3674 23.0252 30.094 22.0706 30.6295 21.0085C31.1615 19.8881 31.4438 18.6658 31.4567 17.4259C31.4697 16.186 31.2131 14.9581 30.7047 13.8269C30.2146 12.7741 29.536 11.8197 28.7023 11.0105C27.8608 10.1932 26.8803 9.53201 25.8067 9.05788C24.7318 8.58283 23.5695 8.33664 22.3941 8.33502H6.86328V4.55176Z" fill="#FCEA10"/>
<path d="M43.2852 43.23V10.9268H46.538V43.23H43.2852Z" fill="#FCEA10"/>
<path d="M53.0977 10.7949H61.6998C63.4484 10.8273 65.1736 11.2038 66.7764 11.9027C68.6104 12.6618 70.2896 13.7499 71.7308 15.1133C73.2935 16.5763 74.5689 18.3178 75.4913 20.2484C76.5022 22.3898 77.0072 24.7344 76.9673 27.1014C76.9868 29.3176 76.535 31.5126 75.6417 33.5414C74.8067 35.449 73.6312 37.189 72.1727 38.6765C70.7657 40.1016 69.1087 41.2566 67.2841 42.0843C65.543 42.8921 63.6477 43.3147 61.728 43.3235H60.7878V40.0659C62.4629 40.072 64.1232 39.7532 65.6765 39.1272C67.2277 38.5114 68.6474 37.6066 69.86 36.461C71.1405 35.2577 72.1568 33.8019 72.8445 32.1859C73.5323 30.57 73.8766 28.829 73.8555 27.0733C73.8529 25.4228 73.5338 23.788 72.9154 22.2574C71.6882 19.0987 69.2723 16.5448 66.1841 15.1414C64.4876 14.3719 62.6415 13.9872 60.7784 14.0149H53.0977V10.7949Z" fill="#FCEA10"/>
<path d="M109.732 10.748V14.0056H83.7188V10.748H109.732ZM109.732 28.0497H87.0186V39.9815H109.769V43.2297H83.7188V24.8015H109.769L109.732 28.0497Z" fill="#FCEA10"/>
<path d="M121.079 4.28906L151.463 43.1638H146.518L133.535 26.7164L121.445 43.1638H116.237L131.194 23.4495L116.152 4.29846L121.079 4.28906Z" fill="#FCEA10"/>
<path d="M7.42578 4.51465H21.6592C23.3396 4.52494 25.008 4.79734 26.6042 5.322C28.272 5.83359 29.8351 6.63787 31.2202 7.6971C32.6154 8.77978 33.7683 10.142 34.6046 11.6963C35.449 13.3299 35.9051 15.1357 35.9377 16.9738C35.9703 18.8118 35.5785 20.6326 34.7927 22.2951C34.026 23.8479 32.9735 25.2427 31.6903 26.4069C30.3556 27.6161 28.8102 28.5706 27.1307 29.2232C25.3858 29.8968 23.5299 30.2375 21.6592 30.2277H14.5707L35.9396 43.1828H28.1178L10.0393 32.0114V26.313H22.9566C24.0477 26.3037 25.1267 26.0838 26.1342 25.6653C27.2156 25.2233 28.2066 24.5869 29.0579 23.7877C29.9337 22.9853 30.6568 22.0311 31.192 20.9714C31.7321 19.8533 32.0188 18.6302 32.0318 17.3889C32.0448 16.1477 31.7838 14.9188 31.2672 13.7898C30.7838 12.7332 30.1043 11.7775 29.2648 10.9734C28.4249 10.1541 27.4441 9.49259 26.3692 9.02077C25.2949 8.54387 24.1322 8.29759 22.9566 8.29791H7.42578V4.51465Z" fill="#FCEA10"/>
<path d="M43.8477 43.1919V10.8887H47.1099V43.1919H43.8477Z" fill="#FCEA10"/>
<path d="M53.6641 10.7578H62.2662C64.0148 10.7902 65.74 11.1667 67.3428 11.8656C69.178 12.6224 70.8576 13.7108 72.2972 15.0762C73.8628 16.5367 75.1386 18.2788 76.0577 20.2113C77.0686 22.3527 77.5736 24.6973 77.5337 27.0644C77.5532 29.2805 77.1014 31.4755 76.2081 33.5044C75.3731 35.4119 74.1976 37.1519 72.7391 38.6395C71.3321 40.0645 69.6751 41.2195 67.8505 42.0472C66.1094 42.8549 64.2141 43.2776 62.2944 43.2864H61.3542V40.0288C63.0289 40.0314 64.6886 39.7127 66.2429 39.0901C67.7953 38.4669 69.2173 37.5595 70.4358 36.4145C72.3072 34.6143 73.5977 32.2972 74.1421 29.76C74.6864 27.2228 74.4598 24.5811 73.4912 22.1733C72.8826 20.6339 71.9932 19.2206 70.8683 18.0052C69.7026 16.7665 68.3074 15.7655 66.7599 15.0574C65.0641 14.2858 63.2175 13.901 61.3542 13.9309H53.7111L53.6641 10.7578Z" fill="#FCEA10"/>
<path d="M110.294 10.7109V13.9685H84.2812V10.7109H110.294ZM110.341 28.0219H87.5341V39.9444H110.341V43.1926H84.2812V24.7644H110.341V28.0219Z" fill="#FCEA10"/>
<path d="M121.65 4.25195L152.026 43.1266H147.081L134.107 26.6793L122.008 43.1266H116.799L131.757 23.4124L116.715 4.26134L121.65 4.25195Z" fill="#FCEA10"/>
<path d="M42.0625 43.2394V10.9268H45.3153V43.2394H42.0625Z" fill="white"/>
<path d="M51.8789 10.7949H60.4716C62.2234 10.8263 63.9518 11.2028 65.5576 11.9027C67.39 12.6596 69.0665 13.748 70.5027 15.1133C72.0627 16.5786 73.3377 18.3196 74.2632 20.2484C75.2099 22.3326 75.7121 24.5907 75.738 26.8791C75.7639 29.1676 75.3129 31.4364 74.4136 33.5414C73.5785 35.4513 72.3995 37.1918 70.9351 38.6765C69.5333 40.1034 67.879 41.2588 66.0559 42.0843C64.3116 42.8922 62.4132 43.3149 60.4904 43.3235H59.5503V40.0659C61.2218 40.0675 62.8782 39.7488 64.4295 39.1272C65.9808 38.5061 67.4026 37.6019 68.6224 36.461C70.4908 34.6569 71.7798 32.3387 72.3256 29.8012C72.8713 27.2637 72.6491 24.6215 71.6872 22.2104C70.4447 19.0615 68.0336 16.5125 64.956 15.0945C63.2595 14.325 61.4134 13.9403 59.5503 13.968H51.8789V10.7949Z" fill="white"/>
<path d="M108.498 10.748V14.0056H82.4844V10.748H108.498ZM108.544 28.0591H85.7466V39.9815H108.544V43.2391H82.4844V24.8015H108.544V28.0591Z" fill="white"/>
<path d="M119.858 4.28906L150.243 43.1638H145.307L132.334 26.7164L120.244 43.1638H115.026L129.983 23.4495L114.941 4.29846L119.858 4.28906Z" fill="white"/>
<path d="M43.8477 43.1919V10.8887H47.1099V43.1919H43.8477Z" fill="white"/>
<path d="M53.6641 10.7578H62.2662C64.0148 10.7902 65.74 11.1667 67.3428 11.8656C69.178 12.6224 70.8576 13.7108 72.2972 15.0762C73.8628 16.5367 75.1386 18.2788 76.0577 20.2113C77.0686 22.3527 77.5736 24.6973 77.5337 27.0644C77.5532 29.2805 77.1014 31.4755 76.2081 33.5044C75.3731 35.4119 74.1976 37.1519 72.7391 38.6395C71.3321 40.0645 69.6751 41.2195 67.8505 42.0472C66.1094 42.8549 64.2141 43.2776 62.2944 43.2864H61.3542V40.0288C63.0294 40.0359 64.6898 39.717 66.2429 39.0901C67.7966 38.4737 69.2193 37.5691 70.4358 36.4239C72.3072 34.6237 73.5977 32.3066 74.1421 29.7694C74.6864 27.2322 74.4598 24.5905 73.4912 22.1827C72.8826 20.6433 71.9932 19.23 70.8683 18.0146C69.7026 16.7759 68.3074 15.7749 66.7599 15.0668C65.0641 14.2952 63.2175 13.9104 61.3542 13.9403H53.7111L53.6641 10.7578Z" fill="white"/>
<path d="M110.294 10.7109V13.9685H84.2812V10.7109H110.294ZM110.341 28.0219H87.5435V39.9444H110.341V43.1926H84.2812V24.7644H110.341V28.0219Z" fill="white"/>
<path d="M121.65 4.25195L152.026 43.1642H147.081L134.107 26.7075L122.008 43.1642H116.799L131.757 23.4499L116.715 4.28012L121.65 4.25195Z" fill="white"/>
<path d="M120.38 9.06208L119.877 9.4531C119.696 9.22051 119.568 8.96832 119.493 8.69653C119.425 8.42574 119.409 8.15522 119.443 7.88496C119.477 7.61471 119.56 7.35665 119.692 7.11079C119.832 6.86592 120.018 6.65311 120.251 6.47238L123.617 3.86035L124.922 5.53767L124.419 5.92869L123.505 4.75457L120.643 6.97557C120.481 7.1007 120.352 7.24795 120.254 7.41732C120.159 7.59116 120.1 7.77347 120.076 7.96423C120.052 8.155 120.064 8.34628 120.113 8.53807C120.166 8.72638 120.255 8.90105 120.38 9.06208Z" fill="#1D1D1B"/>
<path d="M121.565 11.6638C121.384 11.4312 121.256 11.179 121.181 10.9073C121.114 10.6365 121.097 10.3659 121.131 10.0957C121.165 9.82543 121.248 9.56737 121.38 9.32151C121.52 9.07664 121.706 8.86384 121.939 8.6831C122.167 8.50584 122.416 8.38149 122.683 8.31007C122.959 8.23964 123.232 8.22138 123.503 8.25528C123.773 8.28918 124.032 8.37201 124.278 8.50377C124.528 8.64001 124.743 8.82442 124.924 9.05701C125.102 9.28512 125.224 9.53458 125.291 9.80537C125.361 10.0806 125.38 10.3534 125.346 10.6236C125.312 10.8939 125.227 11.1537 125.09 11.403C124.958 11.6489 124.778 11.8605 124.55 12.0377L124.227 12.288L122.922 10.6107L123.426 10.2196L124.339 11.3938C124.474 11.2895 124.577 11.1591 124.649 11.0027C124.725 10.8507 124.766 10.6862 124.772 10.5094C124.778 10.3325 124.752 10.1517 124.695 9.96682C124.637 9.78198 124.545 9.60905 124.42 9.44803C124.291 9.28254 124.14 9.15255 123.966 9.05808C123.796 8.96014 123.616 8.8992 123.425 8.87527C123.237 8.85581 123.047 8.87038 122.855 8.91899C122.667 8.97206 122.492 9.06117 122.331 9.18629C122.165 9.3149 122.033 9.46388 121.935 9.63325C121.84 9.8071 121.779 9.98717 121.752 10.1735C121.732 10.3607 121.747 10.5503 121.796 10.7421C121.849 10.9304 121.94 11.1073 122.069 11.2728L121.565 11.6638Z" fill="#1D1D1B"/>
<path d="M124.574 15.5177C124.393 15.2852 124.268 15.0312 124.197 14.756C124.127 14.4807 124.108 14.2079 124.142 13.9377C124.176 13.6674 124.261 13.4076 124.398 13.1583C124.534 12.909 124.719 12.6939 124.952 12.5132C125.185 12.3324 125.437 12.2086 125.708 12.1416C125.984 12.0712 126.257 12.0529 126.527 12.0868C126.803 12.1173 127.065 12.2006 127.315 12.3368C127.564 12.4731 127.78 12.6575 127.961 12.8901C128.152 13.1361 128.28 13.4064 128.344 13.701C128.412 14.0002 128.419 14.2918 128.368 14.5759L127.744 14.4676C127.774 14.2654 127.765 14.0605 127.719 13.8528C127.672 13.6451 127.582 13.4563 127.45 13.2863C127.321 13.1208 127.17 12.9908 126.996 12.8964C126.822 12.8019 126.639 12.7427 126.448 12.7188C126.257 12.6948 126.066 12.7072 125.873 12.7558C125.685 12.8089 125.51 12.898 125.349 13.0231C125.183 13.1517 125.051 13.3007 124.953 13.47C124.858 13.6439 124.799 13.8262 124.775 14.017C124.751 14.2077 124.764 14.399 124.812 14.5908C124.865 14.7791 124.956 14.956 125.085 15.1215L124.574 15.5177Z" fill="#1D1D1B"/>
<path d="M129.837 16.3813L128.793 15.0394L130.983 13.3398L131.375 13.843L129.695 15.1464L130.348 15.985C130.529 16.2176 130.653 16.4693 130.72 16.7401C130.79 17.0154 130.809 17.2881 130.775 17.5584C130.741 17.8286 130.655 18.0884 130.519 18.3378C130.387 18.5836 130.205 18.7969 129.972 18.9777L128.292 20.2811L127.895 19.7712L129.575 18.4678C129.741 18.3392 129.871 18.1879 129.965 18.0141C130.064 17.8447 130.122 17.6664 130.142 17.4791C130.169 17.2928 130.156 17.1055 130.103 16.9172C130.055 16.7254 129.966 16.5468 129.837 16.3813Z" fill="#1D1D1B"/>
<path d="M130.362 19.465C130.595 19.2843 130.847 19.1604 131.118 19.0935C131.394 19.0231 131.667 19.0048 131.937 19.0387C132.212 19.0691 132.473 19.1502 132.719 19.282C132.969 19.4182 133.184 19.6026 133.365 19.8352C133.546 20.0678 133.67 20.3195 133.737 20.5903C133.808 20.8655 133.824 21.14 133.786 21.4138C133.755 21.6885 133.672 21.9505 133.535 22.1999C133.403 22.4457 133.221 22.659 132.988 22.8398L131.302 24.1484L130.905 23.6385L132.591 22.3299C132.752 22.2047 132.88 22.0553 132.975 21.8814C133.073 21.712 133.134 21.532 133.158 21.3412C133.182 21.1504 133.17 20.9592 133.121 20.7674C133.072 20.5756 132.984 20.3969 132.855 20.2314C132.726 20.066 132.575 19.936 132.4 19.8415C132.226 19.747 132.044 19.6878 131.853 19.6639C131.662 19.64 131.47 19.6523 131.278 19.7009C131.09 19.754 130.915 19.8431 130.753 19.9682L130.362 19.465Z" fill="#1D1D1B"/>
<path d="M136.347 23.7219C136.524 23.95 136.647 24.1995 136.714 24.4703C136.789 24.7421 136.809 25.0131 136.775 25.2833C136.741 25.5536 136.654 25.8111 136.515 26.056C136.383 26.3019 136.202 26.5134 135.974 26.6907C135.741 26.8714 135.487 26.997 135.211 27.0675C134.943 27.1389 134.674 27.1576 134.404 27.1237C134.137 27.0864 133.882 26.9978 133.636 26.8581C133.395 26.7229 133.185 26.5412 133.008 26.3131L133.512 25.9221C133.637 26.0831 133.784 26.2126 133.954 26.3105C134.128 26.405 134.307 26.4637 134.49 26.4866C134.681 26.5105 134.868 26.4977 135.052 26.4481C135.244 26.3995 135.421 26.3126 135.582 26.1875C135.744 26.0624 135.872 25.9129 135.966 25.7391C136.064 25.5697 136.123 25.3914 136.143 25.2041C136.17 25.0178 136.157 24.8305 136.104 24.6422C136.055 24.4504 135.968 24.274 135.843 24.1129C135.718 23.9519 135.568 23.8242 135.394 23.7297C135.228 23.6362 135.049 23.5775 134.858 23.5536C134.675 23.5307 134.487 23.5435 134.295 23.5921C134.107 23.6452 133.932 23.7343 133.771 23.8594L133.379 23.3562C133.608 23.1789 133.856 23.0546 134.123 22.9832C134.399 22.9127 134.672 22.8945 134.943 22.9284C135.213 22.9623 135.47 23.0469 135.711 23.1821C135.958 23.3139 136.169 23.4938 136.347 23.7219Z" fill="#1D1D1B"/>
<path d="M135.073 28.9951L134.682 28.4919L139.727 24.5765L140.119 25.0797L135.073 28.9951Z" fill="#1D1D1B"/>
<path d="M140.14 28.5966C140.318 28.8247 140.44 29.0742 140.507 29.345C140.582 29.6168 140.603 29.8878 140.569 30.158C140.535 30.4283 140.448 30.6858 140.308 30.9307C140.176 31.1766 139.996 31.3881 139.767 31.5654C139.534 31.7461 139.28 31.8717 139.005 31.9422C138.737 32.0136 138.468 32.0323 138.197 31.9984C137.931 31.9611 137.675 31.8725 137.43 31.7328C137.188 31.5976 136.979 31.4159 136.801 31.1878L137.305 30.7968C137.43 30.9578 137.578 31.0873 137.747 31.1852C137.921 31.2797 138.1 31.3384 138.283 31.3613C138.474 31.3852 138.662 31.3724 138.846 31.3228C139.038 31.2742 139.215 31.1873 139.376 31.0622C139.537 30.9371 139.665 30.7876 139.76 30.6138C139.858 30.4444 139.916 30.2661 139.936 30.0788C139.963 29.8925 139.951 29.7052 139.897 29.5169C139.849 29.3251 139.762 29.1487 139.636 28.9876C139.511 28.8266 139.361 28.6989 139.187 28.6044C139.021 28.5109 138.843 28.4522 138.652 28.4283C138.468 28.4054 138.281 28.4182 138.089 28.4668C137.9 28.5199 137.725 28.609 137.564 28.7341L137.173 28.2309C137.401 28.0536 137.649 27.9293 137.917 27.8579C138.192 27.7874 138.466 27.7692 138.736 27.8031C139.007 27.837 139.263 27.9216 139.505 28.0568C139.751 28.1886 139.963 28.3685 140.14 28.5966Z" fill="#1D1D1B"/>
<path d="M141.104 36.7175C140.876 36.8948 140.626 37.0169 140.355 37.0838C140.083 37.1587 139.811 37.1792 139.541 37.1453C139.27 37.1114 139.012 37.0246 138.767 36.8849C138.521 36.7532 138.307 36.571 138.126 36.3384C137.948 36.1103 137.808 35.8787 137.704 35.6437C137.6 35.4086 137.535 35.1826 137.51 34.9654C137.488 34.7528 137.504 34.5508 137.556 34.3596C137.607 34.1763 137.7 34.0183 137.834 33.8857L138.304 34.4896C138.253 34.572 138.214 34.66 138.186 34.7533C138.158 34.8467 138.153 34.9511 138.171 35.0663C138.184 35.1851 138.226 35.3135 138.298 35.4517C138.369 35.5978 138.479 35.763 138.63 35.9474C138.759 36.1129 138.91 36.2429 139.084 36.3373C139.254 36.4353 139.432 36.494 139.62 36.5134C139.807 36.5408 139.994 36.528 140.183 36.4749C140.375 36.4263 140.551 36.3395 140.713 36.2143L142.392 34.9109C142.554 34.7858 142.682 34.6363 142.776 34.4625C142.874 34.2931 142.935 34.113 142.959 33.9223C142.987 33.736 142.974 33.5487 142.921 33.3603C142.872 33.1686 142.783 32.9899 142.655 32.8244C142.533 32.6679 142.385 32.5424 142.211 32.4479C142.044 32.3544 141.866 32.2957 141.675 32.2718C141.484 32.2479 141.292 32.2602 141.1 32.3088C140.908 32.3574 140.731 32.4443 140.57 32.5694C140.409 32.6945 140.281 32.844 140.186 33.0178C140.092 33.1917 140.033 33.374 140.009 33.5648C139.985 33.7555 139.995 33.9446 140.04 34.1319C140.094 34.3202 140.181 34.4926 140.303 34.6492L139.799 35.0402C139.621 34.8121 139.495 34.5621 139.42 34.2903C139.353 34.0196 139.334 33.7508 139.364 33.484C139.398 33.2137 139.481 32.9557 139.613 32.7098C139.753 32.465 139.941 32.2504 140.179 32.0662C140.407 31.8889 140.655 31.7646 140.923 31.6932C141.199 31.6227 141.472 31.6045 141.742 31.6384C142.013 31.6723 142.269 31.7568 142.511 31.8921C142.761 32.0283 142.974 32.2105 143.152 32.4386C143.333 32.6712 143.457 32.9229 143.524 33.1937C143.599 33.4655 143.619 33.7365 143.585 34.0067C143.551 34.277 143.464 34.5346 143.325 34.7794C143.193 35.0253 143.012 35.2369 142.784 35.4141L141.104 36.7175Z" fill="#1D1D1B"/>
<path d="M143.858 38.6077L140.248 39.1486L139.804 38.5783L143.403 38.024L144.844 34.6681L145.298 35.2518L143.858 38.6077Z" fill="#1D1D1B"/>
</svg>
