<svg width="311" height="95" viewBox="0 0 311 95" fill="none" xmlns="http://www.w3.org/2000/svg">
<path d="M254.716 43.1498L254.716 32.8411C254.716 32.8207 254.709 32.8072 254.702 32.7868C256.883 32.4276 258.539 30.679 258.539 28.5779C258.539 26.2193 256.447 24.2945 253.866 24.2945C251.286 24.2945 249.193 26.2125 249.193 28.5779C249.193 30.679 250.849 32.4276 253.031 32.7868C253.031 32.8072 253.016 32.8207 253.016 32.8411L253.016 43.1498L246.073 43.1498L246.073 21.1768C246.073 21.17 246.066 21.1632 246.066 21.1564C246.066 21.0615 246.044 20.9734 246.007 20.8853C245.97 20.7972 245.91 20.7227 245.837 20.6549C245.829 20.6481 245.829 20.6413 245.822 20.6346L238.82 14.2162C239.337 13.5248 239.648 12.6912 239.648 11.7898C239.648 9.43116 237.555 7.5131 234.975 7.5131C232.395 7.5131 230.302 9.43116 230.302 11.7898C230.302 14.1484 232.395 16.0732 234.975 16.0732C235.958 16.0732 236.868 15.7953 237.622 15.3141L244.373 21.5021L244.373 43.1566L238.154 43.1566L238.154 34.0678C238.154 34.061 238.147 34.0542 238.147 34.0475C238.147 33.9526 238.125 33.8645 238.088 33.7764C238.051 33.6883 237.992 33.6137 237.918 33.5459C237.91 33.5392 237.91 33.5324 237.903 33.5256L230.901 27.1072C231.419 26.4159 231.729 25.5822 231.729 24.6808C231.729 22.3222 229.637 20.3973 227.056 20.3973C224.476 20.3973 222.383 22.3154 222.383 24.6808C222.383 27.0394 224.476 28.9643 227.056 28.9643C228.04 28.9643 228.949 28.6864 229.703 28.2052L236.454 34.3931L236.454 43.1634L173.511 43.1634L163.699 34.1695L163.699 0.457588L159.315 0.457588C159.233 0.430478 159.145 0.41015 159.056 0.41015L150.819 0.41015C150.708 0.41015 150.597 0.43048 150.494 0.471146C150.405 0.505034 150.331 0.552475 150.265 0.606696C150.25 0.620251 150.235 0.620247 150.22 0.633802L147.3 3.31097L119.662 3.31097C119.551 3.31097 119.44 3.3313 119.337 3.37196C119.27 3.39908 119.211 3.44652 119.152 3.48718C119.122 3.50752 119.093 3.51429 119.063 3.54141L114.398 7.81808L106.375 7.81808C105.976 5.82546 104.076 4.31405 101.784 4.31405C99.2107 4.31405 97.1109 6.23211 97.1109 8.5975C97.1109 10.9561 99.2033 12.8742 101.784 12.8742C104.068 12.8742 105.976 11.3628 106.375 9.37015L114.745 9.37015C114.856 9.37015 114.967 9.34982 115.07 9.30916C115.144 9.28205 115.196 9.2346 115.255 9.19394C115.285 9.1736 115.314 9.16683 115.344 9.13971L120.009 4.86304L147.647 4.86304C147.758 4.86304 147.869 4.84271 147.973 4.80204C148.061 4.76816 148.135 4.72071 148.202 4.65971C148.217 4.64615 148.231 4.64616 148.246 4.6326L151.167 1.95545L159.056 1.95545L159.056 5.92035L150.819 5.92035C150.708 5.92035 150.597 5.94068 150.494 5.98134C150.405 6.01523 150.331 6.06268 150.265 6.1169C150.25 6.13046 150.235 6.13045 150.22 6.14401L147.3 8.82117L119.662 8.82117C119.551 8.82117 119.44 8.84151 119.337 8.88217C119.27 8.90928 119.211 8.95673 119.152 8.99739C119.122 9.01772 119.093 9.0245 119.063 9.05161L114.398 13.3283L90.7449 13.3283C90.3456 11.3357 88.4454 9.82426 86.1534 9.82426C83.5803 9.82426 81.4805 11.7423 81.4805 14.1077C81.4805 16.4663 83.5729 18.3912 86.1533 18.3912C88.438 18.3912 90.3456 16.8798 90.7449 14.8871L114.745 14.8871C114.856 14.8871 114.967 14.8668 115.07 14.8261C115.144 14.799 115.196 14.7516 115.255 14.7109C115.285 14.6906 115.314 14.6838 115.344 14.6567L120.009 10.38L147.647 10.38C147.758 10.38 147.869 10.3597 147.973 10.319L147.98 10.319C147.995 10.3122 148.002 10.3055 148.01 10.2987C148.098 10.2648 148.18 10.2174 148.246 10.1564C148.246 10.1564 148.246 10.1564 148.246 10.1496L151.167 7.47243L159.056 7.47243L159.056 11.3831L150.819 11.3831C150.708 11.3831 150.597 11.4034 150.494 11.4441C150.405 11.478 150.331 11.5254 150.265 11.5797C150.25 11.5932 150.235 11.5932 150.22 11.6068L147.3 14.2839L119.662 14.2839C119.551 14.2839 119.44 14.3043 119.337 14.3449C119.27 14.372 119.211 14.4195 119.152 14.4601C119.122 14.4805 119.093 14.4873 119.063 14.5144L114.398 18.791L73.0368 18.791C72.6375 16.7984 70.7373 15.287 68.4453 15.287C65.8722 15.287 63.7724 17.2051 63.7724 19.5705C63.7724 21.9291 65.8648 23.8539 68.4453 23.8539C70.7299 23.8539 72.6375 22.3425 73.0368 20.3499L114.745 20.3499C114.856 20.3499 114.967 20.3296 115.07 20.2889C115.144 20.2618 115.196 20.2143 115.255 20.1737C115.285 20.1533 115.314 20.1466 115.344 20.1195L120.009 15.8428L147.647 15.8428C147.758 15.8428 147.869 15.8225 147.973 15.7818C148.032 15.7547 148.084 15.714 148.143 15.6801C148.18 15.6598 148.217 15.6462 148.246 15.6191L151.167 12.942L159.056 12.942L159.056 16.8527L150.819 16.8527C150.708 16.8527 150.597 16.873 150.494 16.9136C150.405 16.9475 150.331 16.995 150.265 17.0492C150.25 17.0628 150.235 17.0628 150.22 17.0763L147.3 19.7535L119.662 19.7535C119.551 19.7535 119.44 19.7738 119.337 19.8145C119.263 19.8416 119.203 19.889 119.144 19.9297C119.115 19.95 119.085 19.9568 119.063 19.9771L114.398 24.2538L53.0736 24.2538L34.4561 7.18776C34.9737 6.49645 35.2842 5.6628 35.2842 4.76138C35.2842 2.40276 33.1918 0.477915 30.6114 0.477915C28.0383 0.477915 25.9385 2.39599 25.9385 4.76137C25.9385 7.11999 28.0309 9.04482 30.6114 9.04482C31.5947 9.04482 32.5042 8.76695 33.2583 8.28574L52.1272 25.5822L52.3712 25.8059L115.093 25.8059L120.002 21.3055L147.64 21.3055C147.751 21.3055 147.862 21.2852 147.965 21.2445C148.054 21.2107 148.128 21.1632 148.194 21.1022C148.209 21.0887 148.224 21.0887 148.239 21.0751L151.159 18.3979L159.048 18.3979L159.048 22.3086L150.812 22.3086C150.701 22.3086 150.59 22.329 150.486 22.3696C150.398 22.4035 150.324 22.451 150.257 22.5052C150.242 22.5187 150.228 22.5187 150.213 22.5323L147.292 25.2095L119.654 25.2095C119.544 25.2095 119.433 25.2298 119.329 25.2705C119.263 25.2976 119.203 25.345 119.144 25.3857C119.115 25.406 119.085 25.4128 119.056 25.4399L114.39 29.7166L46.0569 29.7166L21.4875 7.19454C22.005 6.50322 22.3156 5.66957 22.3156 4.76815C22.3156 2.40954 20.2231 0.484688 17.6427 0.484688C15.0623 0.484688 12.9698 2.40276 12.9698 4.76815C12.9698 7.12676 15.0623 9.05161 17.6427 9.05161C18.6261 9.05161 19.5355 8.77372 20.2897 8.29251L45.1105 31.045L45.3545 31.2686L114.738 31.2686C114.849 31.2686 114.959 31.2483 115.063 31.2076C115.137 31.1805 115.189 31.1331 115.248 31.0924C115.277 31.0721 115.307 31.0653 115.337 31.0382L120.002 26.7615L147.64 26.7615C147.751 26.7615 147.862 26.7412 147.965 26.7005C148.054 26.6666 148.128 26.6192 148.194 26.5582C148.209 26.5446 148.224 26.5446 148.239 26.5311L151.159 23.8539L159.048 23.8539L159.048 27.7646L150.812 27.7646C150.701 27.7646 150.59 27.785 150.486 27.8256C150.398 27.8595 150.324 27.9069 150.257 27.9612C150.242 27.9747 150.228 27.9747 150.213 27.9883L147.292 30.6654L119.654 30.6654C119.544 30.6654 119.433 30.6858 119.329 30.7264C119.263 30.7535 119.203 30.801 119.144 30.8417C119.115 30.862 119.085 30.8688 119.056 30.8959L114.39 35.1726L39.0403 35.1726L8.5188 7.19454C9.03638 6.50322 9.34689 5.66957 9.34689 4.76815C9.34689 2.40954 7.25446 0.484688 4.67404 0.484688C2.10101 0.484688 0.00115957 2.40276 0.00115946 4.76815C0.00115935 7.12676 2.09363 9.05161 4.67404 9.05161C5.65741 9.05161 6.56683 8.77372 7.32098 8.29251L38.0939 36.501L38.3379 36.7246L114.767 36.7246C114.878 36.7246 114.989 36.7043 115.093 36.6636C115.166 36.6365 115.218 36.5891 115.277 36.5484C115.307 36.5281 115.337 36.5213 115.366 36.4942L120.032 32.2175L147.669 32.2175C147.78 32.2175 147.891 32.1972 147.995 32.1565C148.084 32.1226 148.157 32.0752 148.224 32.0142C148.239 32.0006 148.254 32.0006 148.268 31.9871L151.189 29.3099L159.078 29.3099L159.078 35.9452L171.61 47.4333L171.707 47.3452L171.707 47.4333L258.391 47.4333L310.82 95.473L310.82 89.4613L260.284 43.1566L254.716 43.1566L254.716 43.1498ZM250.886 28.5847C250.886 27.0801 252.225 25.8533 253.866 25.8533C255.508 25.8533 256.846 27.0801 256.846 28.5847C256.846 30.0893 255.508 31.3161 253.866 31.3161C252.225 31.3161 250.886 30.0893 250.886 28.5847ZM232.018 11.7898C232.018 10.2851 233.356 9.05839 234.997 9.05839C236.639 9.05839 237.977 10.2851 237.977 11.7898C237.977 13.2944 236.639 14.5212 234.997 14.5212C233.348 14.5212 232.018 13.2944 232.018 11.7898ZM224.106 24.6672C224.106 23.1626 225.444 21.9359 227.086 21.9359C228.727 21.9359 230.066 23.1626 230.066 24.6672C230.066 26.1719 228.727 27.3986 227.086 27.3986C225.444 27.3986 224.106 26.1787 224.106 24.6672ZM86.1755 16.8255C84.5341 16.8255 83.1958 15.5988 83.1958 14.0942C83.1958 12.5895 84.5341 11.3628 86.1755 11.3628C87.8169 11.3628 89.1552 12.5895 89.1552 14.0942C89.1552 15.5988 87.8169 16.8255 86.1755 16.8255ZM68.4675 22.2815C66.826 22.2815 65.4878 21.0548 65.4878 19.5501C65.4878 18.0455 66.826 16.8188 68.4675 16.8188C70.1089 16.8188 71.4471 18.0455 71.4471 19.5501C71.4471 21.0548 70.1089 22.2815 68.4675 22.2815ZM27.6538 4.74104C27.6538 3.23641 28.9921 2.00965 30.6335 2.00965C32.275 2.00965 33.6132 3.23641 33.6132 4.74104C33.6132 6.24567 32.275 7.47242 30.6335 7.47242C28.9921 7.47242 27.6538 6.24567 27.6538 4.74104ZM14.6852 4.74104C14.6852 3.23641 16.0235 2.00965 17.6649 2.00965C19.3063 2.00965 20.6446 3.23641 20.6446 4.74104C20.6446 6.24567 19.3063 7.47242 17.6649 7.47242C16.0235 7.47242 14.6852 6.24567 14.6852 4.74104ZM1.71652 4.74104C1.71652 3.23641 3.05481 2.00965 4.69623 2.00965C6.33765 2.00965 7.6759 3.23641 7.6759 4.74104C7.6759 6.24567 6.33765 7.47242 4.69623 7.47242C3.05481 7.47242 1.71652 6.24567 1.71652 4.74104ZM101.806 11.3086C100.165 11.3086 98.8262 10.0818 98.8262 8.57717C98.8262 7.07254 100.165 5.84579 101.806 5.84579C103.447 5.84579 104.786 7.07254 104.786 8.57717C104.786 10.0818 103.447 11.3086 101.806 11.3086Z" fill="#FCEE0A"/>
</svg>
