<svg width="15" height="15" viewBox="0 0 15 15" fill="none" xmlns="http://www.w3.org/2000/svg">
<path d="M7.5 7.5C8.49456 7.5 9.44839 7.10491 10.1517 6.40165C10.8549 5.69839 11.25 4.74456 11.25 3.75C11.25 2.75544 10.8549 1.80161 10.1517 1.09835C9.44839 0.395088 8.49456 0 7.5 0C6.50544 0 5.55161 0.395088 4.84835 1.09835C4.14509 1.80161 3.75 2.75544 3.75 3.75C3.75 4.74456 4.14509 5.69839 4.84835 6.40165C5.55161 7.10491 6.50544 7.5 7.5 7.5ZM10 3.75C10 4.41304 9.73661 5.04893 9.26777 5.51777C8.79893 5.98661 8.16304 6.25 7.5 6.25C6.83696 6.25 6.20107 5.98661 5.73223 5.51777C5.26339 5.04893 5 4.41304 5 3.75C5 3.08696 5.26339 2.45107 5.73223 1.98223C6.20107 1.51339 6.83696 1.25 7.5 1.25C8.16304 1.25 8.79893 1.51339 9.26777 1.98223C9.73661 2.45107 10 3.08696 10 3.75ZM15 13.75C15 15 13.75 15 13.75 15H1.25C1.25 15 0 15 0 13.75C0 12.5 1.25 8.75 7.5 8.75C13.75 8.75 15 12.5 15 13.75ZM13.75 13.745C13.7487 13.4375 13.5575 12.5125 12.71 11.665C11.895 10.85 10.3612 10 7.5 10C4.6375 10 3.105 10.85 2.29 11.665C1.4425 12.5125 1.2525 13.4375 1.25 13.745H13.75Z" fill="#FCEE0A"/>
</svg>
