<svg width="19" height="19" viewBox="0 0 19 19" fill="none" xmlns="http://www.w3.org/2000/svg">
<path d="M18.7388 14.4136C18.5716 15.6839 17.9477 16.85 16.9837 17.6939C16.0196 18.5379 14.7813 19.0021 13.5 18.9998C6.05626 18.9998 8.4831e-06 12.9436 8.4831e-06 5.49981C-0.00228837 4.21852 0.461903 2.98021 1.30588 2.01615C2.14986 1.05209 3.31592 0.428223 4.58626 0.26106C4.9075 0.221836 5.2328 0.287556 5.51362 0.448409C5.79444 0.609262 6.0157 0.856621 6.14438 1.15356L8.12438 5.57387V5.58512C8.2229 5.81242 8.26359 6.06059 8.24282 6.30744C8.22204 6.5543 8.14044 6.79217 8.00532 6.99981C7.98845 7.02512 7.97063 7.04856 7.95188 7.072L6.00001 9.38575C6.7022 10.8126 8.1947 12.292 9.64032 12.9961L11.9222 11.0545C11.9446 11.0357 11.9681 11.0181 11.9925 11.002C12.2 10.8636 12.4387 10.7792 12.687 10.7562C12.9353 10.7333 13.1854 10.7727 13.4147 10.8707L13.4269 10.8764L17.8434 12.8554C18.1409 12.9837 18.3889 13.2047 18.5503 13.4856C18.7116 13.7664 18.7778 14.092 18.7388 14.4136Z" fill="#FCEE0A"/>
</svg>
