<svg width="13" height="13" viewBox="0 0 13 13" fill="none" xmlns="http://www.w3.org/2000/svg">
<g clip-path="url(#clip0_3615_13948)">
<path d="M9.5411 8.40495C10.3278 7.33138 10.6802 6.00035 10.5277 4.67813C10.3752 3.35592 9.72913 2.14004 8.71866 1.27374C7.7082 0.407446 6.4079 -0.0453742 5.07791 0.00587269C3.74792 0.0571196 2.48632 0.608655 1.54551 1.55014C0.604703 2.49162 0.0540705 3.75361 0.00377531 5.08364C-0.0465199 6.41367 0.407231 7.71364 1.27425 8.72348C2.14127 9.73333 3.35761 10.3786 4.67993 10.5301C6.00226 10.6817 7.33304 10.3283 8.40604 9.54082H8.40523C8.4296 9.57332 8.4556 9.6042 8.48485 9.63426L11.613 12.7624C11.7653 12.9148 11.972 13.0005 12.1875 13.0006C12.4031 13.0007 12.6098 12.9151 12.7623 12.7628C12.9147 12.6104 13.0004 12.4038 13.0005 12.1882C13.0006 11.9727 12.915 11.766 12.7627 11.6135L9.63454 8.48538C9.60549 8.45598 9.57426 8.42882 9.5411 8.40414V8.40495ZM9.75073 5.2817C9.75073 5.86854 9.63514 6.44964 9.41057 6.99181C9.18599 7.53399 8.85682 8.02662 8.44186 8.44158C8.0269 8.85654 7.53427 9.18571 6.9921 9.41028C6.44992 9.63486 5.86882 9.75045 5.28198 9.75045C4.69514 9.75045 4.11404 9.63486 3.57186 9.41028C3.02969 9.18571 2.53706 8.85654 2.1221 8.44158C1.70713 8.02662 1.37797 7.53399 1.15339 6.99181C0.928817 6.44964 0.81323 5.86854 0.81323 5.2817C0.81323 4.09651 1.28404 2.95987 2.1221 2.12181C2.96015 1.28376 4.09679 0.812948 5.28198 0.812948C6.46717 0.812948 7.60381 1.28376 8.44186 2.12181C9.27992 2.95987 9.75073 4.09651 9.75073 5.2817Z" fill="#534E00"/>
</g>
<defs>
<clipPath id="clip0_3615_13948">
<rect width="13" height="13" fill="white"/>
</clipPath>
</defs>
</svg>
