<svg width="24" height="24" viewBox="0 0 24 24" fill="none" xmlns="http://www.w3.org/2000/svg">
<path id="Vector" d="M2.66667 24C1.93334 24 1.30534 23.7387 0.782669 23.216C0.260002 22.6933 -0.000886625 22.0658 2.26372e-06 21.3333V16H2.66667V21.3333H8V24H2.66667ZM21.3333 24H16V21.3333H21.3333V16H24V21.3333C24 22.0667 23.7387 22.6947 23.216 23.2173C22.6933 23.74 22.0658 24.0009 21.3333 24ZM2.26372e-06 2.66667C2.26372e-06 1.93334 0.261336 1.30534 0.784002 0.782669C1.30667 0.260002 1.93422 -0.000886625 2.66667 2.26372e-06H8V2.66667H2.66667V8H2.26372e-06V2.66667ZM24 2.66667V8H21.3333V2.66667H16V2.26372e-06H21.3333C22.0667 2.26372e-06 22.6947 0.261336 23.2173 0.784002C23.74 1.30667 24.0009 1.93422 24 2.66667ZM12 20C12.4667 20 12.8613 19.8387 13.184 19.516C13.5067 19.1933 13.6676 18.7991 13.6667 18.3333C13.6667 17.8667 13.5053 17.472 13.1827 17.1493C12.86 16.8267 12.4658 16.6658 12 16.6667C11.5333 16.6667 11.1387 16.828 10.816 17.1507C10.4933 17.4733 10.3324 17.8676 10.3333 18.3333C10.3333 18.8 10.4947 19.1947 10.8173 19.5173C11.14 19.84 11.5342 20.0009 12 20ZM10.8 14.9H13.2333C13.2333 14.1444 13.3222 13.5667 13.5 13.1667C13.6778 12.7667 14.0667 12.2667 14.6667 11.6667C15.4444 10.8889 15.9613 10.2609 16.2173 9.78267C16.4733 9.30444 16.6009 8.73244 16.6 8.06667C16.6 6.86667 16.1667 5.88889 15.3 5.13333C14.4333 4.37778 13.3333 4 12 4C10.8889 4 9.93333 4.28889 9.13333 4.86667C8.33333 5.44445 7.75556 6.26667 7.4 7.33333L9.6 8.23333C9.75556 7.65556 10.0502 7.18311 10.484 6.816C10.9178 6.44889 11.4231 6.26578 12 6.26667C12.6444 6.26667 13.1613 6.43911 13.5507 6.784C13.94 7.12889 14.1342 7.58978 14.1333 8.16667C14.1333 8.61111 14.028 9.028 13.8173 9.41733C13.6067 9.80667 13.2453 10.212 12.7333 10.6333C12 11.2778 11.4947 11.9 11.2173 12.5C10.94 13.1 10.8009 13.9 10.8 14.9Z" fill="#534E00"/>
</svg>
